<?xml version="1.0" encoding="UTF-8"?>
<svg id="Layer_1" data-name="Layer 1" xmlns="http://www.w3.org/2000/svg" xmlns:xlink="http://www.w3.org/1999/xlink" version="1.1" viewBox="0 0 536.59 341.64">
  <defs>
    <style>
      .cls-1 {
        fill: #e30613;
      }

      .cls-1, .cls-2 {
        fill-rule: evenodd;
      }

      .cls-1, .cls-2, .cls-3, .cls-4, .cls-5 {
        stroke-width: 0px;
      }

      .cls-2 {
        fill: url(#GradientFill_8);
      }

      .cls-3 {
        fill: #1d1d1b;
      }

      .cls-4 {
        fill: #009fe3;
      }

      .cls-5 {
        fill: #96368b;
      }
    </style>
    <linearGradient id="GradientFill_8" data-name="GradientFill 8" x1="423.82" y1="177.73" x2="423.82" y2="331.86" gradientUnits="userSpaceOnUse">
      <stop offset="0" stop-color="#ebebeb"/>
      <stop offset=".53" stop-color="#fbfbfb"/>
      <stop offset="1" stop-color="#fff"/>
    </linearGradient>
  </defs>
  <path class="cls-4" d="M371.68,67.88l55.3-53.4-5.17-6.58c-3.17-4.22-8.44-5.98-13.02-3.35l-72.63,44.5c-4.4,2.64-5.1,8.09-3.17,13.01l38.69,98.49c1.94,4.75,9.33,6.86,13.02,3.16l64.42-63.73-76.73-18.58c-3.87-3.51-4.57-9.84-.71-13.54Z"/>
  <path class="cls-5" d="M513.44,100.24L451.88,2.8c-2.81-4.57-9.85-2.99-13.54.71l-11.36,10.98,43.2,54.98c3.17,4.22.35,9.32-3.34,13.02l-17.72,17.53,59.05,14.3c9.67,2.29,8.27-9.32,5.28-14.07Z"/>
  <path class="cls-3" d="M470.17,69.46l-43.2-54.98-55.3,53.4c-3.87,3.7-3.16,10.03.71,13.54l76.73,18.58,17.72-17.53c3.7-3.69,6.51-8.79,3.34-13.02Z"/>
  <path class="cls-1" d="M507.46,134.71l-102.01,35.35c-5.28-.34-9.32-5.27-5.63-8.96l44.67-45.38c3.69-3.69,7.21-6.85,12.31-5.62l51.88,12.49c5.1,1.23,8.44,8.79-1.23,12.13Z"/>
  <path class="cls-2" d="M449.24,241.65l-64.55-63.67c-3.69-3.7-11.08-1.59-13.02,3.16l-38.69,98.49c-1.93,4.92-1.23,10.37,3.17,13.01l72.63,44.5c4.58,2.64,9.85.88,13.02-3.34l5.1-6.51,11.43,10.91c3.7,3.69,10.73,5.1,13.54.7l61.56-97.43c2.99-4.75,4.4-16.35-5.28-14.07l-58.92,14.25h0ZM507.46,207c9.68,3.34,6.33,10.91,1.23,12.13l-51.88,12.49c-5.1,1.23-8.62-1.93-12.31-5.63l-44.67-45.38c-3.69-3.69.35-8.62,5.63-8.97l102.01,35.35Z"/>
  <g>
    <path class="cls-3" d="M57.62,174.28h-11.62v-64.31c-.53-3.79-2.43-5.69-5.69-5.69-1.59,0-2.94.55-4.04,1.65-1.1,1.1-1.65,2.45-1.65,4.04v64.31h-11.62v-64.31c0-1.59-.55-2.94-1.65-4.04-1.1-1.1-2.45-1.65-4.04-1.65s-2.94.55-4.04,1.65c-1.1,1.1-1.65,2.45-1.65,4.04v64.31H0v-64.32c0-5.01,1.65-9.14,4.95-12.41,3.3-3.26,7.42-4.9,12.36-4.9,4.48,0,8.31,1.48,11.5,4.44,3.26-2.96,7.1-4.44,11.5-4.44s8.48,1.69,12.01,5.07c3.53,3.38,5.3,7.27,5.3,11.67v64.89Z"/>
    <path class="cls-3" d="M100.28,174.28h-11.61l-1.82-17.12h-9.22l-1.71,17.12h-11.72l12.29-80.75h11.61l12.18,80.75ZM85.71,145.53c-.84-9.96-1.97-20.77-3.42-32.41-.68,1.45-1.82,12.25-3.41,32.41h6.83Z"/>
    <path class="cls-3" d="M141.71,174.28h-11.61l-1.82-17.12h-9.22l-1.71,17.12h-11.72l12.29-80.75h11.61l12.18,80.75ZM127.14,145.53c-.84-9.96-1.97-20.77-3.42-32.41-.68,1.45-1.82,12.25-3.41,32.41h6.83Z"/>
    <path class="cls-3" d="M182.32,157.88c0,4.18-1.84,8-5.53,11.46-3.68,3.46-7.65,5.19-11.9,5.19-5.16,0-9.32-1.59-12.47-4.78-3.15-3.19-4.73-7.36-4.73-12.53v-5.69h11.62v5.69c0,1.67.53,3.03,1.59,4.1,1.06,1.06,2.39,1.59,3.98,1.59s2.96-.55,4.09-1.65,1.71-2.45,1.71-4.05v-18.47c0-1.52-.59-2.85-1.77-3.99-1.18-1.14-2.52-1.71-4.04-1.71-5.01,0-9.13-1.76-12.36-5.28-3.23-3.52-4.84-7.78-4.84-12.78v-5.68c0-5,1.61-9.12,4.84-12.38,3.23-3.26,7.35-4.88,12.36-4.88,4.48,0,8.5,1.69,12.07,5.07,3.57,3.38,5.35,7.27,5.35,11.67v6.26h-11.62v-5.69c0-1.59-.57-2.94-1.71-4.04s-2.5-1.65-4.09-1.65-2.92.55-3.98,1.64c-1.06,1.09-1.59,2.43-1.59,4.01v6.45c0,1.58.53,2.92,1.59,4.01,1.06,1.09,2.39,1.64,3.99,1.64,4.55,0,8.59,1.71,12.12,5.13,3.53,3.42,5.29,7.37,5.29,11.86v19.49Z"/>
    <path class="cls-3" d="M223.75,157.88c0,4.18-1.84,8-5.53,11.46-3.68,3.46-7.65,5.19-11.9,5.19-5.16,0-9.32-1.59-12.47-4.78-3.15-3.19-4.73-7.36-4.73-12.53v-5.69h11.62v5.69c0,1.67.53,3.03,1.59,4.1,1.06,1.06,2.39,1.59,3.98,1.59s2.96-.55,4.09-1.65c1.14-1.1,1.71-2.45,1.71-4.05v-18.47c0-1.52-.59-2.85-1.77-3.99-1.18-1.14-2.52-1.71-4.04-1.71-5.01,0-9.13-1.76-12.36-5.28-3.23-3.52-4.84-7.78-4.84-12.78v-5.68c0-5,1.61-9.12,4.84-12.38,3.23-3.26,7.35-4.88,12.36-4.88,4.48,0,8.5,1.69,12.07,5.07,3.57,3.38,5.35,7.27,5.35,11.67v6.26h-11.62v-5.69c0-1.59-.57-2.94-1.71-4.04-1.14-1.1-2.5-1.65-4.09-1.65s-2.92.55-3.98,1.64c-1.06,1.09-1.59,2.43-1.59,4.01v6.45c0,1.58.53,2.92,1.59,4.01,1.06,1.09,2.39,1.64,3.99,1.64,4.55,0,8.59,1.71,12.12,5.13,3.53,3.42,5.29,7.37,5.29,11.86v19.49Z"/>
    <path class="cls-3" d="M265.79,174.28h-34.61v-80.75h34.61v11.62h-23.11v17.25h19.92v11.5h-19.92v28.87h23.11v11.5Z"/>
    <path class="cls-3" d="M307.55,174.28h-11.5v-64.31c0-1.59-.57-2.94-1.71-4.04-1.14-1.1-2.5-1.65-4.1-1.65s-2.94.55-4.04,1.65c-1.1,1.1-1.65,2.45-1.65,4.04v64.31h-11.5v-64.32c0-5.01,1.63-9.14,4.9-12.41,3.26-3.26,7.36-4.9,12.3-4.9,4.55,0,8.58,1.69,12.07,5.07,3.49,3.38,5.24,7.27,5.24,11.67v64.89Z"/>
  </g>
  <g>
    <path class="cls-3" d="M153.23,242.22h-5.37v-37.44h5.37v37.44Z"/>
    <path class="cls-3" d="M173.76,242.1h-5.31v-29.8c0-.74-.26-1.36-.79-1.87-.53-.51-1.16-.76-1.89-.76s-1.36.25-1.87.76c-.51.51-.76,1.13-.76,1.87v29.8h-5.31v-29.8c0-2.32.75-4.24,2.26-5.75s3.4-2.27,5.68-2.27c2.1,0,3.96.78,5.58,2.35,1.61,1.56,2.42,3.37,2.42,5.41v30.06Z"/>
    <path class="cls-3" d="M193.57,210.1h-5.38v32.06h-5.31v-32.06h-5.33v-5.37h16.02v5.37Z"/>
    <path class="cls-3" d="M213.48,242.1h-16.02v-37.37h16.02v5.37h-10.71v7.94h9.23v5.31h-9.23v13.44h10.71v5.31Z"/>
    <path class="cls-3" d="M234.08,242.16h-5.5l-3.02-13.35h-2.54v13.35h-5.31v-37.44h8.19c2.11,0,3.95.78,5.52,2.35s2.35,3.41,2.35,5.52v8.4c0,2.43-1.04,4.47-3.11,6.12l3.43,15.05ZM228.4,220.74v-8.07c0-.77-.26-1.41-.77-1.9-.51-.49-1.16-.74-1.94-.74h-2.66v13.35h2.66c.74,0,1.38-.25,1.91-.76.53-.51.8-1.13.8-1.87Z"/>
    <path class="cls-3" d="M243.71,242.22h-5.37v-37.44h5.37v37.44Z"/>
    <path class="cls-3" d="M275.06,242.1h-5.37v-29.8c-.25-1.76-1.13-2.64-2.66-2.64-.74,0-1.37.25-1.89.76-.51.51-.77,1.13-.77,1.87v29.8h-5.38v-29.8c0-.74-.26-1.36-.77-1.87s-1.14-.76-1.89-.76-1.37.25-1.89.76c-.51.51-.77,1.13-.77,1.87v29.8h-5.37v-29.8c0-2.32.77-4.24,2.3-5.75s3.44-2.27,5.74-2.27c2.08,0,3.86.69,5.34,2.06,1.52-1.37,3.29-2.06,5.34-2.06s3.94.78,5.58,2.35c1.64,1.56,2.46,3.37,2.46,5.41v30.06Z"/>
    <path class="cls-3" d="M306.11,220.97c0,2.22-.79,4.07-2.38,5.57-1.59,1.5-3.53,2.24-5.83,2.24h-2.54v13.37h-5.31v-37.44h8.19c2.11,0,3.95.78,5.52,2.35s2.35,3.4,2.35,5.51v8.39ZM300.73,220.77v-8.09c0-.78-.26-1.41-.77-1.9-.51-.49-1.16-.74-1.94-.74h-2.66v13.37h2.66c.74,0,1.38-.25,1.91-.77.53-.51.8-1.14.8-1.88Z"/>
    <path class="cls-3" d="M326.1,242.16h-5.5l-3.02-13.35h-2.54v13.35h-5.31v-37.44h8.19c2.11,0,3.95.78,5.52,2.35s2.35,3.41,2.35,5.52v8.4c0,2.43-1.04,4.47-3.11,6.12l3.43,15.05ZM320.41,220.74v-8.07c0-.77-.26-1.41-.77-1.9-.51-.49-1.16-.74-1.94-.74h-2.66v13.35h2.66c.74,0,1.38-.25,1.91-.76.53-.51.8-1.13.8-1.87Z"/>
    <path class="cls-3" d="M346.29,234.58c0,2.29-.76,4.14-2.29,5.57-1.53,1.42-3.41,2.14-5.66,2.14-2.11,0-3.97-.78-5.61-2.35-1.63-1.56-2.45-3.35-2.45-5.36v-22.53c0-2.32.77-4.24,2.32-5.75,1.54-1.51,3.46-2.27,5.74-2.27,2.07,0,3.91.83,5.53,2.48,1.61,1.65,2.42,3.5,2.42,5.54v22.53ZM340.92,234.6v-22.55c0-.63-.25-1.23-.76-1.79-.51-.56-1.11-.84-1.81-.84-.74,0-1.38.26-1.92.77-.54.51-.82,1.14-.82,1.87v22.55c0,.7.27,1.28.82,1.72.54.44,1.18.66,1.92.66,1.72,0,2.58-.79,2.58-2.38Z"/>
    <path class="cls-3" d="M366.75,210.1h-10.71v7.94h9.23v5.31h-9.23v18.75h-5.31v-37.37h16.02v5.37Z"/>
    <path class="cls-3" d="M386.28,242.1h-16.02v-37.37h16.02v5.37h-10.71v7.94h9.23v5.31h-9.23v13.44h10.71v5.31Z"/>
    <path class="cls-3" d="M406.32,234.51c0,1.94-.85,3.71-2.56,5.31-1.71,1.6-3.55,2.4-5.52,2.4-2.4,0-4.32-.74-5.79-2.22-1.46-1.48-2.19-3.42-2.19-5.82v-2.65h5.37v2.66c0,.78.25,1.42.74,1.91.5.5,1.12.74,1.86.74s1.38-.26,1.91-.77c.53-.51.8-1.14.8-1.88v-8.58c0-.71-.27-1.32-.82-1.85-.55-.53-1.17-.79-1.88-.79-2.33,0-4.24-.82-5.74-2.45-1.5-1.63-2.25-3.6-2.25-5.92v-2.63c0-2.32.75-4.23,2.25-5.74,1.5-1.51,3.41-2.26,5.73-2.26,2.08,0,3.94.79,5.6,2.35,1.66,1.57,2.48,3.38,2.48,5.42v2.91h-5.37v-2.66c0-.74-.27-1.37-.8-1.89-.53-.51-1.17-.77-1.91-.77s-1.36.25-1.86.76c-.5.51-.74,1.13-.74,1.87v3c0,.74.25,1.36.74,1.87.49.51,1.11.76,1.85.76,2.12,0,3.99.79,5.63,2.38,1.64,1.59,2.46,3.42,2.46,5.5v9.04Z"/>
    <path class="cls-3" d="M426.37,234.51c0,1.94-.85,3.71-2.56,5.31-1.71,1.6-3.55,2.4-5.52,2.4-2.4,0-4.32-.74-5.79-2.22-1.46-1.48-2.19-3.42-2.19-5.82v-2.65h5.37v2.66c0,.78.25,1.42.74,1.91.5.5,1.12.74,1.86.74s1.38-.26,1.91-.77c.53-.51.8-1.14.8-1.88v-8.58c0-.71-.27-1.32-.82-1.85-.55-.53-1.17-.79-1.88-.79-2.33,0-4.24-.82-5.74-2.45-1.5-1.63-2.25-3.6-2.25-5.92v-2.63c0-2.32.75-4.23,2.25-5.74,1.5-1.51,3.41-2.26,5.73-2.26,2.08,0,3.94.79,5.6,2.35,1.66,1.57,2.48,3.38,2.48,5.42v2.91h-5.37v-2.66c0-.74-.27-1.37-.8-1.89-.53-.51-1.17-.77-1.91-.77s-1.36.25-1.86.76-.74,1.13-.74,1.87v3c0,.74.25,1.36.74,1.87.49.51,1.11.76,1.85.76,2.12,0,3.99.79,5.63,2.38,1.64,1.59,2.46,3.42,2.46,5.5v9.04Z"/>
    <path class="cls-3" d="M435.98,242.22h-5.37v-37.44h5.37v37.44Z"/>
    <path class="cls-3" d="M456.51,234.58c0,2.29-.76,4.14-2.29,5.57-1.53,1.42-3.41,2.14-5.66,2.14-2.11,0-3.97-.78-5.61-2.35-1.63-1.56-2.45-3.35-2.45-5.36v-22.53c0-2.32.77-4.24,2.32-5.75,1.54-1.51,3.46-2.27,5.74-2.27,2.07,0,3.91.83,5.53,2.48,1.61,1.65,2.42,3.5,2.42,5.54v22.53ZM451.14,234.6v-22.55c0-.63-.25-1.23-.76-1.79-.51-.56-1.11-.84-1.81-.84-.74,0-1.38.26-1.92.77-.54.51-.82,1.14-.82,1.87v22.55c0,.7.27,1.28.82,1.72.54.44,1.18.66,1.92.66,1.72,0,2.58-.79,2.58-2.38Z"/>
    <path class="cls-3" d="M476.83,242.1h-5.31v-29.8c0-.74-.26-1.36-.79-1.87-.53-.51-1.16-.76-1.89-.76s-1.36.25-1.87.76c-.51.51-.76,1.13-.76,1.87v29.8h-5.31v-29.8c0-2.32.75-4.24,2.26-5.75s3.4-2.27,5.68-2.27c2.1,0,3.96.78,5.58,2.35,1.61,1.56,2.42,3.37,2.42,5.41v30.06Z"/>
    <path class="cls-3" d="M497.43,242.1h-5.38l-.84-8h-4.27l-.79,8h-5.43l5.7-37.44h5.38l5.65,37.44ZM490.67,228.72c-.39-4.61-.91-9.6-1.58-14.98-.32.67-.84,5.66-1.58,14.98h3.17Z"/>
    <path class="cls-3" d="M517.39,242.1h-16.02v-37.44h5.31v32.12h10.71v5.31Z"/>
    <path class="cls-3" d="M536.59,234.51c0,1.94-.85,3.71-2.56,5.31-1.71,1.6-3.55,2.4-5.52,2.4-2.4,0-4.32-.74-5.79-2.22-1.46-1.48-2.19-3.42-2.19-5.82v-2.65h5.37v2.66c0,.78.25,1.42.74,1.91.5.5,1.12.74,1.86.74s1.38-.26,1.91-.77c.53-.51.8-1.14.8-1.88v-8.58c0-.71-.27-1.32-.82-1.85s-1.17-.79-1.88-.79c-2.33,0-4.24-.82-5.74-2.45-1.5-1.63-2.25-3.6-2.25-5.92v-2.63c0-2.32.75-4.23,2.25-5.74,1.5-1.51,3.41-2.26,5.73-2.26,2.08,0,3.94.79,5.6,2.35,1.66,1.57,2.48,3.38,2.48,5.42v2.91h-5.37v-2.66c0-.74-.27-1.37-.8-1.89-.53-.51-1.17-.77-1.91-.77s-1.36.25-1.86.76c-.5.51-.74,1.13-.74,1.87v3c0,.74.25,1.36.74,1.87.49.51,1.11.76,1.85.76,2.12,0,3.99.79,5.63,2.38,1.64,1.59,2.46,3.42,2.46,5.5v9.04Z"/>
  </g>
</svg>