<?xml version="1.0" encoding="UTF-8"?>
<svg id="Layer_1" data-name="Layer 1" xmlns="http://www.w3.org/2000/svg" version="1.1" viewBox="0 0 183.69 170.06">
  <defs>
    <style>
      .cls-1 {
        fill: #e30613;
        fill-rule: evenodd;
      }

      .cls-1, .cls-2, .cls-3, .cls-4 {
        stroke-width: 0px;
      }

      .cls-2 {
        fill: #1d1d1b;
      }

      .cls-3 {
        fill: #009fe3;
      }

      .cls-4 {
        fill: #96368b;
      }
    </style>
  </defs>
  <path class="cls-3" d="M39.7,67.88L95,14.49l-5.17-6.58c-3.17-4.22-8.44-5.98-13.02-3.35L4.18,49.06C-.21,51.7-.92,57.15,1.02,62.08l38.69,98.49c1.94,4.75,9.33,6.86,13.02,3.16l64.42-63.73-76.73-18.58c-3.87-3.51-4.57-9.84-.71-13.54Z"/>
  <path class="cls-4" d="M181.47,100.24L119.91,2.8c-2.81-4.57-9.85-2.99-13.54.71l-11.36,10.98,43.2,54.98c3.17,4.22.35,9.32-3.34,13.02l-17.72,17.53,59.05,14.3c9.67,2.29,8.27-9.32,5.28-14.07Z"/>
  <path class="cls-2" d="M138.2,69.46L95,14.49l-55.3,53.4c-3.87,3.7-3.16,10.03.71,13.54l76.73,18.58,17.72-17.53c3.7-3.69,6.51-8.79,3.34-13.02Z"/>
  <path class="cls-1" d="M175.48,134.71l-102.01,35.35c-5.28-.34-9.32-5.27-5.63-8.96l44.67-45.38c3.69-3.69,7.21-6.85,12.31-5.62l51.88,12.49c5.1,1.23,8.44,8.79-1.23,12.13Z"/>
</svg>